<svg width="16" height="15" viewBox="0 0 16 15" fill="none" xmlns="http://www.w3.org/2000/svg">
<path d="M7.64723 13.1346L8.00079 13.4881L8.35434 13.1346L14.4129 7.07585L14.4133 7.07547C15.1092 6.37807 15.5 5.43314 15.5 4.44798C15.5 3.46281 15.1093 2.51786 14.4135 1.82042L14.413 1.81998L14.1815 1.58853C14.1815 1.58852 14.1815 1.58851 14.1815 1.5885C13.8364 1.24341 13.4267 0.969664 12.9758 0.782899C12.5249 0.596129 12.0417 0.5 11.5536 0.5C11.0656 0.5 10.5823 0.596129 10.1314 0.782899C9.6805 0.969669 9.2708 1.24342 8.9257 1.58853L8.92358 1.59065L7.99798 2.52743L7.07734 1.59002L7.07736 1.59001L7.0739 1.58655C6.37675 0.890456 5.43174 0.499646 4.44657 0.500016C3.46141 0.500387 2.51671 0.891897 1.82009 1.5885C1.82008 1.58851 1.82007 1.58852 1.82006 1.58853L1.58854 1.82002L1.58851 1.82004C0.891548 2.51701 0.5 3.4623 0.5 4.44795C0.5 5.43361 0.891548 6.37889 1.58851 7.07586L1.94206 6.72231L1.58851 7.07586L7.64723 13.1346Z" stroke="#181818"/>
</svg>
