<svg width="74" height="20" viewBox="0 0 74 20" fill="none" xmlns="http://www.w3.org/2000/svg">
<path d="M0 20V0H3.9818V7.14773H5.87031V0H9.85211V20H5.87031V10.9318H3.9818V20H0Z" fill="#181818"/>
<path d="M12.5588 20V0H20.5679V3.86364H16.6316V7.76136H20.4086V11.5227H16.6316V16.1023H20.8296V20H12.5588Z" fill="#181818"/>
<path d="M23.0926 20V0H29.236C30.2598 0 31.0335 0.234848 31.5568 0.704545C32.0801 1.16667 32.429 1.81818 32.6034 2.65909C32.7854 3.49242 32.8765 4.47348 32.8765 5.60227C32.8765 6.69318 32.7361 7.56439 32.4555 8.21591C32.1825 8.86742 31.663 9.31818 30.8969 9.56818C31.5264 9.69697 31.9663 10.0114 32.2166 10.5114C32.4745 11.0038 32.6034 11.6439 32.6034 12.4318V20H28.6558V12.1705C28.6558 11.5871 28.5344 11.2273 28.2917 11.0909C28.0566 10.947 27.6736 10.875 27.1427 10.875V20H23.0926ZM27.1654 7.40909H28.1324C28.6861 7.40909 28.9629 6.80682 28.9629 5.60227C28.9629 4.82197 28.9022 4.31061 28.7809 4.06818C28.6595 3.82576 28.432 3.70455 28.0983 3.70455H27.1654V7.40909Z" fill="#181818"/>
<path d="M35.1281 20V0H40.5547C42.0109 0 43.069 0.356061 43.7288 1.06818C44.3962 1.77273 44.7299 2.93939 44.7299 4.56818V5.44318C44.7299 6.38258 44.5593 7.14394 44.218 7.72727C43.8843 8.31061 43.3723 8.69318 42.6821 8.875C43.5847 9.10227 44.1876 9.63636 44.491 10.4773C44.802 11.3106 44.9575 12.3295 44.9575 13.5341C44.9575 14.8295 44.8361 15.9621 44.5934 16.9318C44.3507 17.9015 43.9108 18.6553 43.2737 19.1932C42.6366 19.7311 41.7303 20 40.5547 20H35.1281ZM39.0416 7.53409H39.8608C40.2324 7.53409 40.4713 7.39015 40.5775 7.10227C40.6837 6.81439 40.7368 6.4697 40.7368 6.06818V4.05682C40.7368 3.41288 40.4523 3.09091 39.8835 3.09091H39.0416V7.53409ZM39.4398 16.4773C40.4789 16.4773 40.9984 15.9848 40.9984 15V12.5C40.9984 11.9318 40.9112 11.4848 40.7368 11.1591C40.5699 10.8258 40.2514 10.6591 39.7811 10.6591H39.0416V16.4545C39.2085 16.4697 39.3412 16.4773 39.4398 16.4773Z" fill="#181818"/>
<path d="M47.0271 20V0H50.8951V20H47.0271Z" fill="#181818"/>
<path d="M53.4198 20V0H61.4289V3.89773H57.4471V7.07955H61.2241V10.9318H57.4471V20H53.4198Z" fill="#181818"/>
<path d="M66.081 20V13.4205L62.8842 0H66.8546L67.9695 6.77273L69.0844 0H73.0435L69.858 13.4205V20H66.081Z" fill="#181818"/>
</svg>
