<svg width="14" height="14" viewBox="0 0 14 14" fill="none" xmlns="http://www.w3.org/2000/svg">
<path d="M7 8.4C10.8659 8.4 14 9.86253 14 11.6667V14H0V11.6667C0 9.86253 3.13413 8.4 7 8.4ZM13.0667 11.6667C13.0667 10.3787 10.3507 9.33333 7 9.33333C3.64933 9.33333 0.933333 10.3787 0.933333 11.6667V13.0667H13.0667V11.6667ZM7 0C7.86637 0 8.69726 0.344166 9.30988 0.956785C9.9225 1.5694 10.2667 2.40029 10.2667 3.26667C10.2667 4.13304 9.9225 4.96393 9.30988 5.57655C8.69726 6.18917 7.86637 6.53333 7 6.53333C6.13363 6.53333 5.30274 6.18917 4.69012 5.57655C4.0775 4.96393 3.73333 4.13304 3.73333 3.26667C3.73333 2.40029 4.0775 1.5694 4.69012 0.956785C5.30274 0.344166 6.13363 0 7 0ZM7 0.933333C6.38116 0.933333 5.78767 1.17917 5.35008 1.61675C4.9125 2.05434 4.66667 2.64783 4.66667 3.26667C4.66667 3.88551 4.9125 4.479 5.35008 4.91658C5.78767 5.35417 6.38116 5.6 7 5.6C7.61884 5.6 8.21233 5.35417 8.64992 4.91658C9.0875 4.479 9.33333 3.88551 9.33333 3.26667C9.33333 2.64783 9.0875 2.05434 8.64992 1.61675C8.21233 1.17917 7.61884 0.933333 7 0.933333Z" fill="#181818"/>
</svg>
