<svg width="32" height="29" viewBox="0 0 32 29" fill="none" xmlns="http://www.w3.org/2000/svg">
<path d="M15.1685 26.0572L15.8756 26.7643L16.5827 26.0572L28.5909 14.0488L28.5917 14.048C29.9725 12.6641 30.7481 10.7889 30.7481 8.83392C30.7482 6.87893 29.9728 5.00374 28.592 3.61973L28.5911 3.61885L28.1323 3.16011C27.4475 2.47527 26.6345 1.93203 25.7397 1.56139C24.8449 1.19076 23.8859 1 22.9174 1C21.9489 1 20.9898 1.19076 20.0951 1.56139C19.2003 1.93203 18.3873 2.47527 17.7024 3.16011L17.6982 3.16436L15.8701 5.01457L14.0518 3.16313L14.0518 3.1631L14.0449 3.15618C12.6614 1.77483 10.7861 0.999298 8.83113 1.00003C6.87615 1.00077 5.00145 1.77769 3.61906 3.16005C3.61904 3.16007 3.61902 3.16009 3.61901 3.1601L3.16012 3.61892L3.16007 3.61897C1.777 5.00205 1 6.87791 1 8.83387C1 10.7898 1.777 12.6657 3.16007 14.0488L3.86718 13.3417L3.16007 14.0488L15.1685 26.0572Z" stroke="#181818" stroke-opacity="0.2" stroke-width="2"/>
</svg>
