<svg width="118" height="19" viewBox="0 0 118 19" fill="none" xmlns="http://www.w3.org/2000/svg">
<mask id="mask0_569_47" style="mask-type:alpha" maskUnits="userSpaceOnUse" x="0" y="0" width="118" height="19">
<rect width="118" height="19" fill="#D9D9D9"/>
</mask>
<g mask="url(#mask0_569_47)">
<path fill-rule="evenodd" clip-rule="evenodd" d="M151 -17H-35V35H151V-17ZM12.6329 6.56434L10.5 0L8.36712 6.56434H1.46496L7.04892 10.6213L4.91604 17.1857L10.5 13.1287L16.084 17.1857L13.9511 10.6213L19.535 6.56434H12.6329ZM34.5 0L36.6329 6.56434H43.535L37.9511 10.6213L40.084 17.1857L34.5 13.1287L28.916 17.1857L31.0489 10.6213L25.465 6.56434H32.3671L34.5 0ZM60.6329 6.56434L58.5 0L56.3671 6.56434H49.465L55.0489 10.6213L52.916 17.1857L58.5 13.1287L64.084 17.1857L61.9511 10.6213L67.535 6.56434H60.6329ZM82.5 0L84.6329 6.56434H91.535L85.9511 10.6213L88.084 17.1857L82.5 13.1287L76.916 17.1857L79.0489 10.6213L73.465 6.56434H80.3671L82.5 0ZM108.633 6.56434L106.5 0L104.367 6.56434H97.465L103.049 10.6213L100.916 17.1857L106.5 13.1287L112.084 17.1857L109.951 10.6213L115.535 6.56434H108.633Z" fill="white"/>
<path d="M10.5 1.61804L12.1574 6.71885L12.2696 7.06434H12.6329H17.9962L13.6572 10.2168L13.3633 10.4303L13.4755 10.7758L15.1329 15.8766L10.7939 12.7242L10.5 12.5106L10.2061 12.7242L5.8671 15.8766L7.52445 10.7758L7.63671 10.4303L7.34281 10.2168L3.0038 7.06434H8.36712H8.73039L8.84265 6.71885L10.5 1.61804Z" stroke="#181818"/>
<path d="M34.5 1.61804L36.1574 6.71885L36.2696 7.06434H36.6329H41.9962L37.6572 10.2168L37.3633 10.4303L37.4755 10.7758L39.1329 15.8766L34.7939 12.7242L34.5 12.5106L34.2061 12.7242L29.8671 15.8766L31.5245 10.7758L31.6367 10.4303L31.3428 10.2168L27.0038 7.06434H32.3671H32.7304L32.8426 6.71885L34.5 1.61804Z" stroke="#181818"/>
<path d="M58.5 1.61804L60.1574 6.71885L60.2696 7.06434H60.6329H65.9962L61.6572 10.2168L61.3633 10.4303L61.4755 10.7758L63.1329 15.8766L58.7939 12.7242L58.5 12.5106L58.2061 12.7242L53.8671 15.8766L55.5245 10.7758L55.6367 10.4303L55.3428 10.2168L51.0038 7.06434H56.3671H56.7304L56.8426 6.71885L58.5 1.61804Z" stroke="#181818"/>
<path d="M82.5 1.61804L84.1574 6.71885L84.2696 7.06434H84.6329H89.9962L85.6572 10.2168L85.3633 10.4303L85.4755 10.7758L87.1329 15.8766L82.7939 12.7242L82.5 12.5106L82.2061 12.7242L77.8671 15.8766L79.5245 10.7758L79.6367 10.4303L79.3428 10.2168L75.0038 7.06434H80.3671H80.7304L80.8426 6.71885L82.5 1.61804Z" stroke="#181818"/>
<path d="M106.5 1.61804L108.157 6.71885L108.27 7.06434H108.633H113.996L109.657 10.2168L109.363 10.4303L109.476 10.7758L111.133 15.8766L106.794 12.7242L106.5 12.5106L106.206 12.7242L101.867 15.8766L103.524 10.7758L103.637 10.4303L103.343 10.2168L99.0038 7.06434H104.367H104.73L104.843 6.71885L106.5 1.61804Z" stroke="#181818"/>
</g>
</svg>
