<svg width="27" height="27" viewBox="0 0 27 27" fill="none" xmlns="http://www.w3.org/2000/svg">
<circle cx="13.5" cy="13.5" r="13.5" fill="#875EBC"/>
<path d="M18 18L15.8751 15.8713M17.0526 13.0263C17.0526 14.0942 16.6284 15.1183 15.8734 15.8734C15.1183 16.6284 14.0942 17.0526 13.0263 17.0526C11.9585 17.0526 10.9344 16.6284 10.1793 15.8734C9.4242 15.1183 9 14.0942 9 13.0263C9 11.9585 9.4242 10.9344 10.1793 10.1793C10.9344 9.4242 11.9585 9 13.0263 9C14.0942 9 15.1183 9.4242 15.8734 10.1793C16.6284 10.9344 17.0526 11.9585 17.0526 13.0263V13.0263Z" stroke="white" stroke-linecap="round"/>
</svg>
