<svg width="14" height="14" viewBox="0 0 14 14" fill="none" xmlns="http://www.w3.org/2000/svg">
<path d="M13.9991 12.0135C13.9915 12.2826 13.93 12.5475 13.8181 12.7923C13.7062 13.0371 13.5463 13.257 13.3478 13.4388C13.1493 13.6207 12.9163 13.7608 12.6626 13.8508C12.4089 13.9409 12.1397 13.979 11.871 13.9631C10.1921 13.9724 8.51237 13.9631 6.83345 13.9631C6.73004 13.9631 6.63086 13.922 6.55774 13.8489C6.48462 13.7757 6.44354 13.6766 6.44354 13.5732C6.44354 13.4698 6.48462 13.3706 6.55774 13.2975C6.63086 13.2243 6.73004 13.1833 6.83345 13.1833C8.54902 13.1833 10.2646 13.2082 11.9802 13.1833C12.8434 13.1708 13.2193 12.522 13.2193 11.75V2.03045C13.2252 1.78503 13.156 1.54367 13.021 1.33866C12.8859 1.13366 12.6915 0.974799 12.4637 0.883349C12.1944 0.80994 11.9143 0.784858 11.6363 0.809267H6.83345C6.73004 0.809267 6.63086 0.768188 6.55774 0.695067C6.48462 0.621946 6.44354 0.522772 6.44354 0.419363C6.44354 0.315954 6.48462 0.216781 6.55774 0.14366C6.63086 0.0705385 6.73004 0.0294594 6.83345 0.0294594C8.56852 0.0294594 10.3153 -0.0368243 12.0488 0.0294594C12.3142 0.0360658 12.5756 0.0954109 12.8178 0.204038C13.06 0.312665 13.2782 0.468403 13.4596 0.66218C13.6411 0.855956 13.7822 1.0839 13.8746 1.33273C13.9671 1.58156 14.0092 1.84631 13.9983 2.11155L13.9991 12.0135Z" fill="#181818"/>
<path d="M9.9831 7.27384C10.0489 7.20958 10.0874 7.12246 10.0907 7.03054C10.093 7.01975 10.0946 7.0088 10.0954 6.99779C10.0946 6.98704 10.093 6.97635 10.0907 6.96582C10.088 6.87356 10.0494 6.786 9.9831 6.72174L7.12198 3.8614C7.04845 3.79038 6.94996 3.75108 6.84773 3.75197C6.74549 3.75286 6.6477 3.79386 6.57541 3.86615C6.50312 3.93844 6.46211 4.03624 6.46123 4.13847C6.46034 4.2407 6.49964 4.33919 6.57066 4.41273L8.7666 6.60789H0.389904C0.286495 6.60789 0.187321 6.64897 0.1142 6.72209C0.0410789 6.79521 0 6.89438 0 6.99779C0 7.1012 0.0410789 7.20037 0.1142 7.27349C0.187321 7.34662 0.286495 7.38769 0.389904 7.38769H8.7666L6.57066 9.58285C6.49964 9.65639 6.46034 9.75488 6.46123 9.85711C6.46211 9.95934 6.50312 10.0571 6.57541 10.1294C6.6477 10.2017 6.74549 10.2427 6.84773 10.2436C6.94996 10.2445 7.04845 10.2052 7.12198 10.1342L9.9831 7.27384Z" fill="#181818"/>
</svg>
