<svg width="30" height="26" viewBox="0 0 30 26" fill="none" xmlns="http://www.w3.org/2000/svg">
<path d="M27.2374 12.6952L27.2377 12.6948C28.5251 11.4046 29.2481 9.65649 29.2481 7.8339C29.2482 6.01132 28.5253 4.26314 27.238 2.97287L27.2376 2.97243L26.7787 2.51366C26.7787 2.51365 26.7787 2.51364 26.7787 2.51363C26.1403 1.87524 25.3824 1.36883 24.5483 1.02333C23.7142 0.677829 22.8202 0.5 21.9174 0.5C21.0145 0.5 20.1205 0.677829 19.2864 1.02333C18.4523 1.36884 17.6944 1.87525 17.056 2.51365L17.0539 2.51578L14.869 4.72704L12.695 2.51348L12.6951 2.51346L12.6916 2.51C11.4019 1.2223 9.65378 0.499348 7.83132 0.500032C6.00887 0.500717 4.26126 1.22498 2.97258 2.51363C2.97258 2.51364 2.97257 2.51365 2.97256 2.51366L2.51365 2.9725L2.51362 2.97253C1.22432 4.26184 0.5 6.01051 0.5 7.83387C0.5 9.65722 1.22432 11.4059 2.51362 12.6952L2.86075 12.3481L2.51362 12.6952L14.5221 24.7037L14.8756 25.0572L15.2292 24.7036L27.2374 12.6952Z" fill="#FF3232" stroke="black"/>
</svg>
